<svg xmlns="http://www.w3.org/2000/svg" version="1.0" width="1024.000000pt" height="1024.000000pt" viewBox="0 0 1024.000000 1024.000000" preserveAspectRatio="xMidYMid meet">

<g transform="translate(0.000000,1024.000000) scale(0.100000,-0.100000)" fill="#000000" stroke="none">
<path d="M4766 7619 c-203 -22 -415 -82 -591 -168 -151 -75 -153 -77 -64 -85 102 -10 399 -71 519 -107 l99 -29 79 59 c180 136 324 217 470 266 45 15 81 30 79 32 -3 2 -67 12 -143 22 -150 20 -322 24 -448 10z"/>
<path d="M5689 7440 c-175 -17 -289 -73 -706 -352 -175 -118 -462 -299 -638 -404 -176 -105 -417 -249 -535 -319 -257 -154 -491 -300 -579 -362 -234 -167 -456 -412 -564 -620 -98 -191 -132 -351 -124 -592 4 -131 9 -170 31 -246 59 -196 156 -353 313 -507 324 -318 1171 -638 2028 -767 407 -61 804 -81 1045 -52 823 98 1235 429 1399 1121 16 69 32 148 35 175 6 46 5 48 -8 31 -216 -273 -502 -501 -846 -671 -205 -102 -345 -146 -572 -182 -139 -21 -492 -24 -648 -5 -279 35 -761 125 -950 178 -324 92 -702 236 -910 347 -185 99 -307 209 -373 335 -52 98 -68 167 -69 280 0 119 20 209 71 317 106 227 283 402 613 606 264 164 875 528 929 554 35 17 40 16 365 -49 423 -84 548 -100 729 -93 227 8 361 62 500 202 395 394 156 1038 -400 1077 -33 3 -94 2 -136 -2z m167 -495 c43 -25 84 -90 84 -131 -1 -36 -38 -101 -73 -129 -78 -59 -180 -68 -387 -35 -69 11 -149 23 -177 27 -29 3 -53 10 -53 15 0 11 338 233 393 259 63 28 159 26 213 -6z"/>
<path d="M3707 7139 c-129 -14 -270 -67 -379 -140 -225 -151 -416 -422 -523 -742 -36 -108 -97 -377 -86 -377 4 0 13 11 21 24 28 45 153 178 248 263 99 88 266 204 387 269 47 25 91 60 133 105 82 88 146 121 251 126 45 3 104 -1 145 -10 l69 -15 111 73 c61 40 184 120 273 178 121 78 158 107 145 112 -82 32 -363 107 -468 124 -134 22 -210 24 -327 10z"/>
<path d="M6667 6758 c-4 -68 -13 -150 -22 -183 -8 -33 -15 -65 -15 -71 0 -6 34 -11 88 -13 87 -2 189 -19 278 -46 27 -8 50 -13 52 -11 6 6 -82 138 -138 206 -57 70 -221 240 -231 240 -3 0 -9 -55 -12 -122z"/>
<path d="M6550 6220 c-235 -63 -410 -203 -683 -550 l-114 -145 166 -172 166 -172 34 37 c18 20 81 100 139 177 198 261 318 360 453 372 91 9 144 -11 210 -76 86 -86 105 -167 75 -312 -18 -84 -58 -163 -134 -266 -72 -96 -230 -263 -317 -334 l-63 -51 66 -81 c72 -90 136 -186 173 -259 13 -26 28 -48 33 -48 16 0 192 150 282 242 286 292 417 531 443 809 11 116 6 188 -20 294 -62 255 -239 451 -474 525 -103 33 -330 38 -435 10z"/>
<path d="M4625 5956 c-158 -55 -248 -91 -347 -138 -29 -14 -37 -28 -15 -28 29 0 177 -81 257 -140 49 -36 223 -200 407 -383 l321 -319 -61 -52 c-271 -229 -451 -327 -660 -361 -121 -20 -183 -19 -295 4 -120 25 -209 67 -277 132 -124 117 -140 254 -40 337 48 39 100 49 150 28 21 -9 87 -65 154 -131 l116 -115 80 6 c44 4 114 17 155 31 70 23 250 111 250 123 0 3 -98 104 -218 225 -163 166 -233 230 -282 258 -251 145 -564 103 -770 -102 -121 -121 -174 -241 -186 -425 -10 -164 30 -296 136 -450 182 -264 489 -410 860 -409 378 1 642 109 1091 448 l136 103 60 -61 c130 -134 237 -283 307 -426 24 -48 45 -97 48 -109 5 -17 10 -19 44 -12 108 20 300 87 404 140 l41 21 -42 77 c-109 199 -275 414 -513 662 -322 336 -1109 1130 -1119 1129 -7 0 -93 -28 -192 -63z"/>
<path d="M5360 5915 c0 -4 57 -62 127 -129 l127 -122 40 50 c71 88 146 185 146 189 0 2 -82 5 -182 5 -99 0 -198 4 -220 7 -21 4 -38 4 -38 0z"/>
<path d="M6560 5414 c-41 -71 -178 -262 -239 -334 -26 -30 -51 -61 -55 -68 -4 -7 13 -37 46 -76 41 -50 56 -62 69 -56 28 15 180 182 242 265 61 82 93 139 127 224 l19 50 -77 25 c-42 14 -82 26 -89 26 -6 0 -26 -25 -43 -56z"/>
<path d="M5514 4152 c-56 -37 -152 -94 -214 -127 l-112 -60 44 -8 c23 -4 152 -10 286 -13 212 -6 242 -5 242 8 0 22 -123 261 -135 264 -5 1 -56 -28 -111 -64z"/>
<path d="M3222 3458 c203 -261 496 -495 803 -644 326 -158 605 -224 949 -224 337 0 647 70 927 211 73 36 293 166 334 196 19 15 19 15 -5 9 -70 -19 -251 -46 -380 -55 -411 -32 -1071 55 -1653 218 -295 83 -735 240 -945 337 -52 24 -96 44 -98 44 -3 0 28 -42 68 -92z"/>
</g>
</svg>
